<?xml version="1.0" encoding="utf-8"?>
<!-- Generator: Adobe Illustrator 27.0.0, SVG Export Plug-In . SVG Version: 6.00 Build 0)  -->
<svg version="1.1" id="Layer_1" xmlns="http://www.w3.org/2000/svg" xmlns:xlink="http://www.w3.org/1999/xlink" x="0px" y="0px"
	 viewBox="0 0 128 128" style="enable-background:new 0 0 128 128;" xml:space="preserve">
<style type="text/css">
	.st0{fill:#3B82F7;}
	.st1{fill:#FFFFFF;fill-opacity:0.85;}
	.st2{fill:#FFFFFF;fill-opacity:0.425;}
	.st3{opacity:0.8;fill:#FFFFFF;fill-opacity:0.85;}
</style>
<circle class="st0" cx="64" cy="64" r="64"/>
<path class="st1" d="M42.2,74.4c7.1,0,12.8,5.7,12.8,12.8c0,7.1-5.7,12.8-12.8,12.8s-12.8-5.7-12.8-12.8
	C29.4,80.1,35.1,74.4,42.2,74.4z"/>
<path class="st1" d="M85.8,74.5c-7.1,0-12.8,5.7-12.8,12.8c0,7.1,5.7,12.8,12.8,12.8c7.1,0,12.8-5.7,12.8-12.8
	C98.6,80.2,92.9,74.5,85.8,74.5z"/>
<path class="st2" d="M33.1,58.8C33.8,23.7,64,26,64,26s30.2-2.4,30.9,32.8c0,0,0,0.1,0.1,0.1l6,2.8c0.1,0,0.1,0,0.1-0.1
	c0.2-2.6,0.5-9.1-1.9-16.6C95.6,33.4,84.6,16.7,64,16.7S32.4,33.4,28.8,45.1c-2.3,7.4-2.1,14-1.9,16.6c0,0.1,0.1,0.1,0.1,0.1
	L33.1,58.8C33.1,58.9,33.1,58.8,33.1,58.8z"/>
<path class="st2" d="M40.5,64.9c-2.6-0.6-5.1-4.6-5.6-5.6c-0.1-0.1-0.2-0.2-0.3-0.1c-0.3,0.1-0.9,0.4-1.5,0.7l0,0l-8.3,3.9
	c-0.1,0.1-0.2,0.2-0.1,0.3c0.3,0.9,1.2,4.1,0.3,5c-2.2,2.2-4.5,6.8-4.5,12.4c0,12.2,11.7,25.7,24.9,25.7s16.2-10.6,16.2-16.3
	c0-3.5-0.1-7.1-5.3-15C51.2,68.2,43.4,65.6,40.5,64.9z M27.5,65.6l6.6-3.1c0.4-0.2,0.8,0,1,0.4l0.1,0.3c0.2,0.4,0,0.8-0.4,1
	l-6.6,3.1c-0.4,0.2-0.8,0-1-0.4l-0.1-0.3C27,66.2,27.1,65.7,27.5,65.6z M53.9,100.5c-2.6,2.5-6.1,4-9.4,4c-4.2,0-9.2-2-13-5.1
	c-4.6-3.8-7.1-9-7.1-14.6c0-3.4,1.2-7,3.2-9.6c2.6-3.4,6.6-5.3,11.5-5.3c5.5,0,10.5,2.5,14.3,7.1c3.1,3.8,5.1,8.7,5.1,12.8
	C58.5,93.9,56.9,97.7,53.9,100.5z"/>
<path class="st2" d="M103,69.2c-0.9-0.9,0.1-4.2,0.3-5c0-0.1,0-0.2-0.1-0.3L94.9,60l0,0c-0.6-0.3-1.2-0.6-1.5-0.7
	c-0.1-0.1-0.3,0-0.3,0.1c-0.6,1-3.1,5-5.6,5.6c-2.9,0.7-10.7,3.2-15.9,11.1c-5.2,7.9-5.3,11.5-5.3,15c0,5.7,3,16.3,16.2,16.3
	s24.9-13.6,24.9-25.7C107.5,76,105.2,71.4,103,69.2z M92.8,63.1l0.1-0.3c0.2-0.4,0.6-0.5,1-0.4l6.6,3.1c0.4,0.2,0.5,0.6,0.4,1
	l-0.1,0.3c-0.2,0.4-0.6,0.5-1,0.4l-6.6-3.1C92.8,64,92.6,63.5,92.8,63.1z M96.5,99.3c-3.8,3.2-8.8,5.1-13,5.1c-3.3,0-6.8-1.5-9.4-4
	c-3-2.8-4.6-6.6-4.6-10.7s1.9-9,5.1-12.8c3.7-4.6,8.8-7.1,14.3-7.1c4.9,0,8.8,1.8,11.5,5.3c2,2.6,3.2,6.2,3.2,9.6
	C103.5,90.3,101,95.5,96.5,99.3z"/>
<path class="st3" d="M52.9,77.4c-3.6-4.4-8.5-6.8-13.8-6.8c-4.6,0-8.4,1.7-10.9,5c-1.9,2.5-3.1,5.9-3.1,9.1c0,5.4,2.4,10.4,6.8,14.1
	c3.7,3.1,8.5,5,12.5,5c3.1,0,6.4-1.4,8.9-3.8c2.8-2.7,4.4-6.3,4.4-10.2C57.8,85.8,55.9,81.1,52.9,77.4z M32.8,74.3
	c0,0,0.7-0.5,1.8-1c0.7-0.3,1.7-0.6,1.7-0.6c0.3-0.1,0.7,0.1,0.7,0.4c0.1,0.3-0.1,0.7-0.4,0.7c0,0-1,0.3-1.6,0.6
	c-0.9,0.4-1.5,0.8-1.5,0.8c-0.1,0.1-0.2,0.1-0.4,0.1s-0.4-0.1-0.5-0.2C32.4,74.9,32.5,74.5,32.8,74.3z M42.2,100
	c-7.1,0-12.8-5.7-12.8-12.8c0-7.1,5.7-12.8,12.8-12.8S55,80.1,55,87.2S49.2,100,42.2,100z"/>
<path class="st3" d="M102.8,84.7c0-3.2-1.1-6.6-3.1-9.1c-2.5-3.3-6.3-5-10.9-5c-5.3,0-10.1,2.4-13.8,6.8c-3,3.7-4.9,8.4-4.9,12.4
	c0,3.9,1.5,7.6,4.4,10.2c2.5,2.4,5.8,3.8,8.9,3.8c4,0,8.9-1.9,12.5-5C100.4,95.1,102.8,90.1,102.8,84.7z M91,73.1
	c0.1-0.3,0.4-0.5,0.7-0.4c0,0,1,0.3,1.7,0.6c1.1,0.5,1.7,1,1.8,1c0.3,0.2,0.3,0.6,0.1,0.8c-0.1,0.2-0.3,0.2-0.5,0.2
	c-0.1,0-0.3,0-0.4-0.1c0,0-0.6-0.4-1.5-0.8c-0.6-0.3-1.6-0.5-1.6-0.6C91.1,73.8,90.9,73.4,91,73.1z M85.8,100
	c-7,0-12.8-5.7-12.8-12.7c0-7.1,5.7-12.8,12.8-12.8c7.1,0,12.8,5.7,12.8,12.8C98.6,94.3,92.9,100,85.8,100z"/>
</svg>
