<?xml version="1.0" encoding="utf-8"?>
<!-- Generator: Adobe Illustrator 26.0.2, SVG Export Plug-In . SVG Version: 6.00 Build 0)  -->
<svg version="1.1" id="Layer_1" xmlns="http://www.w3.org/2000/svg" xmlns:xlink="http://www.w3.org/1999/xlink" x="0px" y="0px"
	 viewBox="0 0 128 128" style="enable-background:new 0 0 128 128;" xml:space="preserve">
<style type="text/css">
	.st0{fill:#3B82F7;}
	.st1{fill:#FFFFFF;}
</style>
<circle class="st0" cx="64" cy="64" r="64"/>
<path class="st1" d="M23.6,88.3h3.7c0.7,0,1-0.4,1-1V63.6C28.3,44.1,43,31.7,64,31.7s35.7,12.5,35.7,31.8v23.8c0,0.7,0.4,1,1,1h3.7
	c1.8,0,3.1-1.1,3.1-2.9V61.7c0-22.5-17.8-37.7-42.1-37.7h-2.9c-24.2,0-42,15.2-42,37.7v23.8C20.5,87.1,21.8,88.3,23.6,88.3z M37,104
	h4.9c4.9,0,7.8-2.7,7.8-7.4V77.9c0-4.7-2.9-7.4-7.8-7.4H37c-2.8,0-4.4,1.6-4.4,4.1v25.1C32.7,102.6,34.2,104,37,104z M86.2,104h4.9
	c2.8,0,4.3-1.6,4.3-4.1V74.8c0-2.7-1.6-4.1-4.3-4.1h-4.9c-4.9,0-7.8,2.7-7.8,7.4v18.7C78.4,101.4,81.3,104,86.2,104z"/>
</svg>
