<?xml version="1.0" encoding="utf-8"?>
<!-- Generator: Adobe Illustrator 26.0.2, SVG Export Plug-In . SVG Version: 6.00 Build 0)  -->
<svg version="1.1" id="Layer_1" xmlns="http://www.w3.org/2000/svg" xmlns:xlink="http://www.w3.org/1999/xlink" x="0px" y="0px"
	 viewBox="0 0 128 128" style="enable-background:new 0 0 128 128;" xml:space="preserve">
<style type="text/css">
	.st0{fill:#3B82F7;}
	.st1{fill:#FFFFFF;}
</style>
<circle class="st0" cx="64" cy="64" r="64"/>
<path class="st1" d="M33.6,90h60.9c6.9,0,10.6-3.6,10.6-10.5V48.4c0-6.9-3.6-10.5-10.6-10.5H33.6c-7,0-10.6,3.6-10.6,10.5v31.1
	C23,86.4,26.6,90,33.6,90z M35.9,56.5c-0.9,0-1.5-0.6-1.5-1.6v-3.1c0-0.9,0.6-1.5,1.5-1.5H39c0.9,0,1.6,0.6,1.6,1.5v3.1
	c0,0.9-0.6,1.6-1.6,1.6H35.9z M46.6,56.5c-1,0-1.6-0.6-1.6-1.6v-3.1c0-0.9,0.6-1.5,1.6-1.5h3c1,0,1.6,0.6,1.6,1.5v3.1
	c0,0.9-0.6,1.6-1.6,1.6H46.6z M57.1,56.5c-0.9,0-1.5-0.6-1.5-1.6v-3.1c0-0.9,0.6-1.5,1.5-1.5h3.1c0.9,0,1.6,0.6,1.6,1.5v3.1
	c0,0.9-0.6,1.6-1.6,1.6H57.1z M67.7,56.5c-0.9,0-1.6-0.6-1.6-1.6v-3.1c0-0.9,0.6-1.5,1.6-1.5h3.1c0.9,0,1.5,0.6,1.5,1.5v3.1
	c0,0.9-0.6,1.6-1.5,1.6H67.7z M78.3,56.5c-1,0-1.6-0.6-1.6-1.6v-3.1c0-0.9,0.6-1.5,1.6-1.5h3c0.9,0,1.5,0.6,1.5,1.5v3.1
	c0,0.9-0.6,1.6-1.5,1.6H78.3z M88.9,56.5c-0.9,0-1.6-0.6-1.6-1.6v-3.1c0-0.9,0.6-1.5,1.6-1.5H92c0.9,0,1.5,0.6,1.5,1.5v3.1
	c0,0.9-0.6,1.6-1.5,1.6H88.9z M35.9,67.1c-0.9,0-1.5-0.6-1.5-1.6v-3.1c0-0.9,0.6-1.6,1.5-1.6H39c0.9,0,1.6,0.6,1.6,1.6v3.1
	c0,0.9-0.6,1.6-1.6,1.6H35.9z M46.6,67.1c-1,0-1.6-0.6-1.6-1.6v-3.1c0-0.9,0.6-1.6,1.6-1.6h3c1,0,1.6,0.6,1.6,1.6v3.1
	c0,0.9-0.6,1.6-1.6,1.6H46.6z M57.1,67.1c-0.9,0-1.5-0.6-1.5-1.6v-3.1c0-0.9,0.6-1.6,1.5-1.6h3.1c0.9,0,1.6,0.6,1.6,1.6v3.1
	c0,0.9-0.6,1.6-1.6,1.6H57.1z M67.7,67.1c-0.9,0-1.6-0.6-1.6-1.6v-3.1c0-0.9,0.6-1.6,1.6-1.6h3.1c0.9,0,1.5,0.6,1.5,1.6v3.1
	c0,0.9-0.6,1.6-1.5,1.6H67.7z M78.3,67.1c-1,0-1.6-0.6-1.6-1.6v-3.1c0-0.9,0.6-1.6,1.6-1.6h3c0.9,0,1.5,0.6,1.5,1.6v3.1
	c0,0.9-0.6,1.6-1.5,1.6H78.3z M88.9,67.1c-0.9,0-1.6-0.6-1.6-1.6v-3.1c0-0.9,0.6-1.6,1.6-1.6H92c0.9,0,1.5,0.6,1.5,1.6v3.1
	c0,0.9-0.6,1.6-1.5,1.6H88.9z M35.9,77.8c-0.9,0-1.5-0.6-1.5-1.5v-3.1c0-0.9,0.6-1.6,1.5-1.6H39c0.9,0,1.6,0.6,1.6,1.6v3.1
	c0,0.9-0.6,1.5-1.6,1.5H35.9z M46.8,77.8c-1.1,0-1.9-0.7-1.9-1.8v-2.5c0-1.2,0.8-1.9,1.9-1.9h34.2c1.2,0,1.9,0.7,1.9,1.9V76
	c0,1.1-0.7,1.8-1.9,1.8H46.8z M88.9,77.8c-0.9,0-1.6-0.6-1.6-1.5v-3.1c0-0.9,0.6-1.6,1.6-1.6H92c0.9,0,1.5,0.6,1.5,1.6v3.1
	c0,0.9-0.6,1.5-1.5,1.5H88.9z"/>
</svg>
