<?xml version="1.0" encoding="utf-8"?>
<!-- Generator: Adobe Illustrator 26.0.2, SVG Export Plug-In . SVG Version: 6.00 Build 0)  -->
<svg version="1.1" id="Layer_1" xmlns="http://www.w3.org/2000/svg" xmlns:xlink="http://www.w3.org/1999/xlink" x="0px" y="0px"
	 viewBox="0 0 128 128" style="enable-background:new 0 0 128 128;" xml:space="preserve">
<style type="text/css">
	.st0{fill:#3B82F7;}
	.st1{fill:#FFFFFF;}
	.st2{fill:#9DC1FB;}
</style>
<circle class="st0" cx="64" cy="64" r="64"/>
<g>
	<path class="st1" d="M48.9,35.9c-5.5-0.1-11.6,2.6-15.5,8.1c-0.5,0.6-0.9,1.3-1.3,2.3c7,1.2,12.9,7.5,12.9,14.5
		c0,1.9-0.4,3.8-1.1,5.5c3.8-0.6,6.3-1.6,8.5-2.9c5.3-3.1,9.3-8,9.3-14.8C61.7,40.5,55.9,36,48.9,35.9z M55,45.7l-4.3,3.6
		c-0.7,0.6-1.8,0.6-2.3-0.2c-0.6-0.7-0.5-1.8,0.2-2.3l4.3-3.6c0.7-0.6,1.8-0.6,2.3,0.2C55.8,44.1,55.8,45.1,55,45.7z"/>
	<path class="st1" d="M95.9,46.4c-0.5-1-0.8-1.8-1.3-2.3c-4-5.6-10-8.2-15.5-8.1c-7,0-12.7,4.6-12.7,12.8c0,6.8,3.9,11.8,9.3,14.8
		c2.2,1.3,4.7,2.2,8.5,2.9c-0.6-1.7-1-3.4-1-5.5C83.2,53.9,88.9,47.6,95.9,46.4z M79.7,49.1c-0.6,0.7-1.6,0.8-2.3,0.2L73,45.7
		c-0.6-0.6-0.7-1.6-0.2-2.3c0.6-0.7,1.6-0.8,2.3-0.2l4.4,3.6C80.3,47.4,80.3,48.4,79.7,49.1z"/>
	<path class="st2" d="M98.4,49.6c-6.6,0-11.8,5.7-11.8,11.3c0,6.1,4.3,9.3,9.3,9.3c5.8,0,11.6-4.6,11.6-11.4
		C107.5,54,104.1,49.6,98.4,49.6z M101.7,63.1c-1.8,2.3-3.3,3.1-4.3,2.2c-0.9-0.8-0.4-2.4,1.4-4.6c1.9-2.3,3.4-3.1,4.3-2.2
		C104,59.3,103.4,61,101.7,63.1z"/>
	<path class="st2" d="M29.5,49.6c-5.6,0-9,4.3-9,9.2c0,6.8,5.7,11.4,11.5,11.4c5.1,0,9.3-3.2,9.3-9.3C41.3,55.3,36,49.6,29.5,49.6z
		 M30.6,65.3c-0.9,0.8-2.5,0-4.4-2.2s-2.4-3.8-1.4-4.6s2.5,0,4.4,2.2C31.1,62.9,31.6,64.6,30.6,65.3z"/>
	<path class="st1" d="M44.3,92h2.5c2.2,0,3.6-1.2,3.6-3.3V68.3c-3.1,1.3-6.2,1.9-9.6,2.2v18.2C40.7,90.9,42.2,92,44.3,92z"/>
	<path class="st1" d="M83.7,92c2.2,0,3.6-1.2,3.6-3.3V70.5c-3.4-0.3-6.6-1-9.6-2.2v20.5c0,2.1,1.4,3.3,3.6,3.3L83.7,92L83.7,92z"/>
</g>
</svg>
