<?xml version="1.0" encoding="utf-8"?>
<!-- Generator: Adobe Illustrator 26.0.2, SVG Export Plug-In . SVG Version: 6.00 Build 0)  -->
<svg version="1.1" id="Layer_1" xmlns="http://www.w3.org/2000/svg" xmlns:xlink="http://www.w3.org/1999/xlink" x="0px" y="0px"
	 viewBox="0 0 128 128" style="enable-background:new 0 0 128 128;" xml:space="preserve">
<style type="text/css">
	.st0{fill:#3B82F7;}
	.st1{fill:#FFFFFF;}
</style>
<circle class="st0" cx="64" cy="64" r="64"/>
<path class="st1" d="M81.9,35.2c-7.7,0-14.3,6.4-14.3,14.9c0,8.8,12.3,19.4,21.6,19.4C96,69.5,104,63,104,55
	C104,45.3,92,35.1,81.9,35.2z M46.1,35.2C35.9,35.1,24,45.3,24,55c0,8,8.1,14.5,14.7,14.5c9.2,0,21.6-10.6,21.6-19.4
	C60.3,41.7,53.8,35.3,46.1,35.2z M83.3,50.4c-1,1.5-3,1.7-4.5,0.7l-4.5-3.2c-1.5-1.1-1.7-3-0.6-4.5c1-1.5,3-1.8,4.4-0.7l4.5,3.2
	C84,46.9,84.3,48.9,83.3,50.4z M44.7,50.4c-1-1.5-0.7-3.5,0.7-4.5l4.5-3.2c1.4-1,3.4-0.6,4.4,0.7c1.1,1.5,0.8,3.4-0.6,4.5l-4.5,3.2
	C47.7,52.1,45.7,51.9,44.7,50.4z M35.7,64.8c-1.8,0-4.7-2.3-6.4-5.2c-1.7-2.9-1.7-5.1,0.2-5.1c1.7,0,4.7,2.3,6.4,5.1
	C37.6,62.5,37.5,64.8,35.7,64.8z M92.2,64.8c-1.7,0-1.8-2.3-0.1-5.2c1.7-2.9,4.6-5.1,6.4-5.1s1.9,2.3,0.2,5.1
	C96.9,62.5,94.1,64.8,92.2,64.8z M47.7,92.8h4c2.2,0,3.7-1.2,3.7-3.4V65.7C52,68.6,48,71,44,72.2v17.3C44,91.5,45.4,92.8,47.7,92.8z
	 M80.3,92.8c2.3,0,3.7-1.2,3.7-3.4V72.1c-4-1.2-8-3.5-11.4-6.5v23.7c0,2.2,1.5,3.4,3.7,3.4L80.3,92.8L80.3,92.8z"/>
</svg>
