<?xml version="1.0" encoding="utf-8"?>
<!-- Generator: Adobe Illustrator 26.0.2, SVG Export Plug-In . SVG Version: 6.00 Build 0)  -->
<svg version="1.1" id="Layer_1" xmlns="http://www.w3.org/2000/svg" xmlns:xlink="http://www.w3.org/1999/xlink" x="0px" y="0px"
	 viewBox="0 0 128 128" style="enable-background:new 0 0 128 128;" xml:space="preserve">
<style type="text/css">
	.st0{fill:#3B82F7;}
	.st1{opacity:0;}
	.st2{fill:#FFFFFF;}
	.st3{fill:#9DC1FB;}
</style>
<circle class="st0" cx="64" cy="64" r="64"/>
<g>
	<rect x="28.5" y="25.6" class="st1" width="71" height="76.7"/>
	<path class="st2" d="M97.3,69.3v-4.7c0.7-0.4,1.1-1.2,1.1-2.2c0-21.1-13-35.7-34.5-35.7c-21.5,0-34.5,14.5-34.5,35.7
		c0,1,0.4,1.8,1.2,2.3v4.7c-1.6,0.9-2.4,2.8-2.2,5c0.7,4.1,3.4,10.7,6.8,16c5.3,8.9,8.3,12.1,11.7,12.1c4.3,0,6.3-4,4-8.2L38.1,71.4
		c-1-1.7-2.4-2.6-4.2-2.7v-4.2c0.6-0.4,0.9-1.2,0.9-2.1C34.9,43.8,46,32,64,32c18,0,29,11.8,29.2,30.4c0,1,0.4,1.7,1,2.1v4.2
		c-1.8,0.2-3.2,1-4.2,2.7L77,94.2c-2.4,4.2-0.3,8.2,4,8.2c3.3,0,6.4-3.1,11.7-12.1c3.3-5.4,6.1-11.9,6.8-16
		C99.7,72,98.9,70.2,97.3,69.3z"/>
	<g>
		<path class="st3" d="M57.3,95.5c2.2-1.3,2.8-4.1,1.4-6.6L47.1,68.4c-1.4-2.4-4.2-3.3-6.3-2.1c-1.3,0.7-1.7,2-1,3.2L54,94.7
			C54.8,95.9,56,96.3,57.3,95.5z"/>
		<path class="st3" d="M70.7,95.5c1.3,0.7,2.6,0.4,3.2-0.9l14.3-25.1c0.7-1.2,0.4-2.5-0.9-3.2c-2.2-1.3-4.9-0.4-6.4,2.1L69.3,89
			C67.8,91.4,68.5,94.3,70.7,95.5z"/>
		<path class="st3" d="M43.8,44c5.7-3.1,12.3-4.6,20.1-4.6c7.9,0,14.5,1.5,20.1,4.6c-4.5-5.8-11-8.7-20.1-8.7
			C54.8,35.3,48.4,38.2,43.8,44z"/>
	</g>
</g>
</svg>
