<?xml version="1.0" encoding="utf-8"?>
<!-- Generator: Adobe Illustrator 27.0.0, SVG Export Plug-In . SVG Version: 6.00 Build 0)  -->
<svg version="1.1" id="Layer_1" xmlns="http://www.w3.org/2000/svg" xmlns:xlink="http://www.w3.org/1999/xlink" x="0px" y="0px"
	 viewBox="0 0 128 128" style="enable-background:new 0 0 128 128;" xml:space="preserve">
<style type="text/css">
	.st0{fill:#3B82F7;}
	.st1{fill:#FFFFFF;}
	.st2{fill:#FFFFFF;fill-opacity:0.425;}
	.st3{opacity:0.75;fill:#FFFFFF;}
</style>
<circle class="st0" cx="64" cy="64" r="64"/>
<path class="st1" d="M74,53.7L84.3,57c0,0,0,0,0.1,0s0.2-0.1,0.2-0.2c0.1-3.9,0.4-17.3-1-26.5l-0.1-0.8c-1.3-0.5-7.2-3-14.2-4.7v6
	l2.4,0.2c1.2,0.1,2,1.1,2,2.2v19.7C73.6,53.4,73.7,53.6,74,53.7z"/>
<polygon class="st2" points="70.5,34.1 70.5,45.1 69.1,45.1 69.1,44.7 67.9,44.7 67.9,45.1 66.5,45.1 66.5,34.1 67.9,34.1 
	67.9,34.9 69.1,34.9 69.1,34.1 "/>
<path class="st2" d="M69.2,52.9L68,52.8h-0.1c-0.5,0-0.9,0.4-0.9,0.9v3.1c0,0.5,0.3,0.8,0.8,0.9l1.2,0.1h0.1c0.5,0,0.9-0.4,0.9-0.9
	v-3.1C70.1,53.3,69.7,52.9,69.2,52.9z"/>
<path class="st1" d="M63.3,52V32.9c0-0.6,0.2-1.2,0.7-1.6c0.4-0.4,1-0.7,1.6-0.7c0.1,0,0.1,0,0.2,0l2,0.2v-6.2
	c-3.5-0.7-6.8-1.1-9.7-1.1h-0.2c-3.6,0-6.5,2.9-6.5,6.4l-0.1,15.5v1.8v7.3L63.2,52C63.2,52.1,63.3,52.1,63.3,52z"/>
<path class="st2" d="M50.3,68.3V57c0-0.1-0.1-0.2-0.2-0.2c-0.1,0-0.2,0-0.3,0c-0.7,0-2,0.1-2,1v4c0,0.3,0.2,0.5,0.5,0.5v0.5
	c0,0-0.5,0.1-0.5,0.6v4.2c0,0.3,0.2,0.5,0.5,0.5h0.4v0.3c0,0.2,0.1,0.4,0.2,0.5c0.1,0.1,0.3,0.2,0.5,0.2C50,69,50.3,68.7,50.3,68.3z
	"/>
<path class="st3" d="M47.9,56.2c0.4-0.2,1.1-0.4,2-0.4c0.1,0,0.2,0,0.3,0h0.1v-0.1v-8.1c0-0.1-0.1-0.1-0.2-0.1
	c-0.2,0.3-0.7,0.9-1.4,1.2c-0.4,0.1-0.7,0.6-0.7,0.9c0,0.2-0.1,1.2-0.1,1.5C47.9,51.1,47.9,56.2,47.9,56.2z"/>
<path class="st1" d="M87.7,56.8c0,0,0.5-23.5-3.3-26.6c1.4,9.2,1.1,22.4,1,26.7c0,0.6-0.5,1-1.1,1c-0.1,0-0.2,0-0.3-0.1l-10.3-3.3
	c-0.6-0.2-1-0.8-1-1.4V33.4c0-0.7-0.5-1.3-1.2-1.3l-3-0.3h-0.2l-2.6-0.2h-0.1c-0.7,0-1.3,0.6-1.3,1.3V52c0,0.5-0.4,1-0.9,1.1
	l-12.1,2.5v0.5v12.1c0,6.1,1.7,11.2-1.3,11.2s-3.1-11.9-3.1-11.9v-4.2c0-0.3,0.1-0.6,0.2-0.8c-0.2-0.2-0.2-0.5-0.2-0.8v-4v-4.5
	c0-0.2-0.2-0.3-0.3-0.1c-0.8,0.7-1.9,1.1-3.3,1.8c-3.2,1.4-5.5,2.1-6.5,7.8s-2.2,14.6-2.2,18.7s1.6,7.5,8.3,11.9
	c4.4,2.9,10.3,7.2,16.5,9.7c3,1.2,6.1,2,9.1,2c9,0,21.3-6.8,21.3-26.1C89.7,68.6,87.7,56.8,87.7,56.8z M71.1,56.9
	c0,1-0.8,1.9-1.9,1.9c-0.1,0-0.1,0-0.2,0l-1.2-0.1c-1-0.1-1.7-0.9-1.7-1.9v-3.1c0-1,0.8-1.9,1.9-1.9c0.1,0,0.1,0,0.2,0l1.2,0.1
	c1,0.1,1.7,0.9,1.7,1.9V56.9z M71.2,45.3v0.4c0,0.2-0.2,0.4-0.4,0.4l-4.7-0.4c-0.2,0-0.4-0.2-0.4-0.4V33.9v-0.4
	c0-0.3,0.2-0.5,0.5-0.4l4.6,0.4c0.2,0,0.4,0.2,0.4,0.4V45.3z"/>
<path class="st3" d="M50,78.4c0.3,0,0.4-0.1,0.4-0.1c0.5-0.6,0.3-2.8,0.2-5c-0.1-1-0.2-2.2-0.2-3.4c-0.2,0-0.4,0.1-0.6,0.1
	c-0.5,0.1-1.1-0.1-1.4-0.5C48.2,69.3,48,69,48,68.9C48.2,75.5,49.5,78.4,50,78.4z"/>
</svg>
