<svg xmlns="http://www.w3.org/2000/svg" xml:space="preserve" id="pixel_buds_pro_svg__Layer_1" x="0" y="0" style="enable-background:new 0 0 128 128" version="1.1" viewBox="0 0 128 128">
  <style>
    .pixel_buds_pro_svg__st1{opacity:.6;fill:#fff;enable-background:new}.pixel_buds_pro_svg__st2{opacity:.35}.pixel_buds_pro_svg__st3{fill:#fff}.pixel_buds_pro_svg__st4{opacity:.85;fill:#fff;enable-background:new}
  </style>
  <circle cx="64" cy="64" r="64" style="fill:#3b82f7"/>
  <g id="pixel_buds_pro_svg__XMLID_00000154427267743005789310000001468912098396400004_">
    <path d="M67.8 56c2.1 7.3 9.3 12.6 18 12.6s15.9-5.4 18-12.6c0-.1.1-.1.2-.1s.2.1.2.2v7.3c0 14.5-8.2 22.1-18.4 22.1-10.1 0-18.4-7.7-18.4-22.1v-7.3c0-.1.1-.2.2-.2s.2 0 .2.1z" class="pixel_buds_pro_svg__st1"/>
    <g class="pixel_buds_pro_svg__st2">
      <path d="M105.1 66c-.4 5.9-2.3 10.9-5.5 14.5-2.7 3.1-6.4 5-10.5 5.7 1.3 1.8 3.9 3 7.3 3.7 1.4.3 3.2.7 4.8.7 6.1 0 12.3-4.4 12.3-12.2-.1-5.7-5.5-10.4-8.4-12.4z" class="pixel_buds_pro_svg__st3"/>
    </g>
  </g>
  <path d="M85.8 36c-9.7 0-17.6 7.1-17.6 15.8 0 8.7 7.9 15.8 17.6 15.8 9.7 0 17.6-7.1 17.6-15.8.1-8.7-7.8-15.8-17.6-15.8zm-4.5 1.2c.2 0 .3-.1.5-.1 1-.2 1.9-.5 4-.5s3.3.3 4.3.5l.2.1c.3.1.5.4.5.7-.1.3-.4.5-.7.5l-.2-.1c-1-.2-2.1-.5-4-.5-2 0-2.8.2-3.7.4-.2 0-.3.1-.5.1h-.1c-.3 0-.5-.2-.6-.5-.2-.1 0-.5.3-.6zm8.8 11.2c0 2.3-1.9 4.2-4.2 4.2s-4.2-1.9-4.2-4.2c0-2.3 1.9-4.2 4.2-4.2s4.2 1.9 4.2 4.2zM89.8 64c-.9.2-2.5.4-4 .4-1.7 0-3.1-.2-4-.4-.9-.2-1.4-1-1.2-1.9.2-.9 1-1.4 1.9-1.2 1 .2 2.2.3 3.3.3 1.3 0 2.6-.2 3.3-.3.9-.2 1.7.4 1.9 1.2.3.9-.3 1.8-1.2 1.9z" class="pixel_buds_pro_svg__st4"/>
  <g id="pixel_buds_pro_svg__XMLID_00000149352975847655968520000001935299749148159108_">
    <path d="M60.2 56c-2.1 7.3-9.3 12.6-18 12.6s-16-5.4-18-12.6c0-.1-.1-.1-.2-.1s-.2.1-.2.2v7.3c0 14.5 8.2 22.1 18.4 22.1 10.1 0 18.4-7.7 18.4-22.1v-7.3c0-.1-.1-.2-.2-.2s-.2 0-.2.1z" class="pixel_buds_pro_svg__st1"/>
    <g class="pixel_buds_pro_svg__st2">
      <path d="M22.9 66c.4 5.9 2.3 10.9 5.5 14.5 2.7 3.1 6.4 5 10.5 5.7-1.3 1.8-3.9 3-7.3 3.7-1.4.3-3.2.7-4.8.7-6.1 0-12.3-4.4-12.3-12.2.1-5.7 5.5-10.4 8.4-12.4z" class="pixel_buds_pro_svg__st3"/>
    </g>
  </g>
  <path d="M42.2 36c9.7 0 17.6 7.1 17.6 15.8 0 8.7-7.9 15.8-17.6 15.8-9.7 0-17.6-7.1-17.6-15.8-.1-8.7 7.8-15.8 17.6-15.8zm4.5 1.2c-.2 0-.3-.1-.5-.1-1-.2-1.9-.5-4-.5s-3.3.3-4.3.5l-.2.1c-.3.1-.5.4-.5.7.1.3.4.5.7.5l.2-.1c1-.2 2.1-.5 4-.5 2 0 2.8.2 3.7.4.2 0 .3.1.5.1h.1c.3 0 .5-.2.6-.5.2-.1 0-.5-.3-.6zm-8.8 11.2c0 2.3 1.9 4.2 4.2 4.2s4.2-1.9 4.2-4.2c0-2.3-1.9-4.2-4.2-4.2s-4.2 1.9-4.2 4.2zm.3 15.6c.9.2 2.5.4 4 .4 1.7 0 3.1-.2 4-.4.9-.2 1.4-1 1.2-1.9-.2-.9-1-1.4-1.9-1.2-1 .2-2.2.3-3.3.3-1.3 0-2.6-.2-3.3-.3-.9-.2-1.7.4-1.9 1.2-.3.9.3 1.8 1.2 1.9z" class="pixel_buds_pro_svg__st4"/>
</svg>
