<?xml version="1.0" encoding="utf-8"?>
<!-- Generator: Adobe Illustrator 27.0.0, SVG Export Plug-In . SVG Version: 6.00 Build 0)  -->
<svg version="1.1" id="Layer_1" xmlns="http://www.w3.org/2000/svg" xmlns:xlink="http://www.w3.org/1999/xlink" x="0px" y="0px"
	 viewBox="0 0 128 128" style="enable-background:new 0 0 128 128;" xml:space="preserve">
<style type="text/css">
	.st0{fill:#656365;}
	.st1{fill:#FFFFFF;}
	.st2{fill:#FFFFFF;fill-opacity:0.425;}
</style>
<circle class="st0" cx="64" cy="64" r="64"/>
<g>
	<g>
		<g>
			<path class="st1" d="M42.3,73.2c-3.5,0-6.6,1.2-8.9,3.5c-2.2,2.2-3.4,5.1-3.4,8.2c0,3.1,0.4,5.8,1.1,8.1c0.7,2.1,1.6,3.8,2.9,5.2
				c1.1,1.2,2.4,2.1,3.9,2.8c1.4,0.5,2.8,0.8,4.4,0.8c3,0,6-1.2,8.2-3.2c1.2-1.1,2.1-2.4,2.8-3.8c0.7-1.6,1.1-3.3,1.1-5.1
				c0-4.9-1.2-9.1-3.5-12.1C48.6,74.8,45.6,73.2,42.3,73.2z"/>
			<path class="st2" d="M42.2,63.3c-2.2,0-4.2,0.3-6,0.9l2.3,6.1c0.3,0.9-0.1,1.9-0.9,2.3l-2.1,1c-0.3,0.1-0.5,0.2-0.8,0.2
				c-0.8,0-1.5-0.5-1.7-1.2l-2-5.7c-5.3,4-7.5,10.6-7.5,15.6c0,22.5,10.8,28.2,19.3,28.2c13.2,0,18.7-10,18.7-18.7
				C61.5,64.6,46.5,63.3,42.2,63.3z M42.2,102.3c-6.1,0-12.8-4.2-12.8-17.4c0-6.6,5.3-12.3,12.9-12.3c7,0,12.5,6.5,12.5,17
				C54.9,97.6,48.3,102.3,42.2,102.3z"/>
		</g>
		<path class="st1" d="M38,70.5l-4.3-11.4c-0.1-0.3-0.1-0.6,0-0.8c-2.5,0.3-4.1,1.6-4.6,2.1c0.2,0.1,0.4,0.4,0.4,0.6l4,11.4
			c0.1,0.2,0.2,0.4,0.3,0.5c0.4,0.4,1,0.5,1.5,0.2l2.1-1c0.3-0.1,0.5-0.3,0.6-0.6C38.1,71.2,38.1,70.8,38,70.5z M32.3,64.5
			c-0.1-0.2,0-0.4,0.3-0.5l0.6-0.2c0.2-0.1,0.4,0,0.5,0.2l1.6,4.4c0.1,0.2,0,0.4-0.2,0.5l-0.6,0.2c-0.2,0.1-0.4,0-0.5-0.2L32.3,64.5
			z"/>
	</g>
	<g>
		<path class="st2" d="M64,13.3c-22.1,0-37.9,17.5-37.9,42.3c0,1.3,0.1,2.5,0.2,3.4c0.1,0.6,0.6,1.1,1.2,1.1l0.6,0
			c0.1,0,0.1,0,0.2,0c0.4-0.4,2.3-2.2,5.5-2.5c0,0,0,0,0,0c0.1-0.1,0.2-0.2,0.4-0.3c0.5-0.2,0.8-0.7,0.8-1.2c0,0,0-0.1,0-0.1
			C33.7,42.5,40.9,21.7,64,21.7s30.3,20.9,28.9,34.5c0,0,0,0.1,0,0.1c0,0.5,0.3,1,0.8,1.2c0.1,0.1,0.3,0.2,0.4,0.3c0,0,0,0,0,0
			c3.2,0.3,5.1,2.1,5.5,2.5c0.1,0,0.1,0,0.2,0l0.6,0c0.6,0,1.2-0.5,1.2-1.1c0.1-0.8,0.2-2.1,0.2-3.4C101.9,30.8,86.1,13.3,64,13.3z"
			/>
		<g>
			<path class="st1" d="M85.7,73.2c3.5,0,6.6,1.2,8.9,3.5c2.2,2.2,3.4,5.1,3.4,8.2c0,3.1-0.4,5.8-1.1,8.1c-0.7,2.1-1.6,3.8-2.9,5.2
				c-1.1,1.2-2.4,2.1-3.9,2.8c-1.4,0.5-2.8,0.8-4.4,0.8c-3,0-6-1.2-8.2-3.2c-1.2-1.1-2.1-2.4-2.8-3.8c-0.7-1.6-1.1-3.3-1.1-5.1
				c0-4.9,1.2-9.1,3.5-12.1C79.4,74.8,82.4,73.2,85.7,73.2z"/>
			<path class="st2" d="M85.8,63.3c2.2,0,4.2,0.3,6,0.9l-2.3,6.1c-0.3,0.9,0.1,1.9,0.9,2.3l2.1,1c0.3,0.1,0.5,0.2,0.8,0.2
				c0.8,0,1.5-0.5,1.7-1.2l2-5.7c5.3,4,7.5,10.6,7.5,15.6c0,22.5-10.8,28.2-19.3,28.2c-13.2,0-18.7-10-18.7-18.7
				C66.5,64.6,81.5,63.3,85.8,63.3z M85.8,102.3c6.1,0,12.8-4.2,12.8-17.4c0-6.6-5.3-12.3-12.9-12.3c-7,0-12.5,6.5-12.5,17
				C73.1,97.6,79.7,102.3,85.8,102.3z"/>
		</g>
		<path class="st1" d="M90,70.5l4.3-11.4c0.1-0.3,0.1-0.6,0-0.8c2.5,0.3,4.1,1.6,4.6,2.1c-0.2,0.1-0.4,0.4-0.4,0.6l-4,11.4
			c-0.1,0.2-0.2,0.4-0.3,0.5c-0.4,0.4-1,0.5-1.5,0.2l-2.1-1c-0.3-0.1-0.5-0.3-0.6-0.6C89.9,71.2,89.9,70.8,90,70.5z M95.7,64.5
			c0.1-0.2,0-0.4-0.3-0.5l-0.6-0.2c-0.2-0.1-0.4,0-0.5,0.2l-1.6,4.4c-0.1,0.2,0,0.4,0.2,0.5l0.6,0.2c0.2,0.1,0.4,0,0.5-0.2
			L95.7,64.5z"/>
	</g>
</g>
</svg>
