<?xml version="1.0" encoding="utf-8"?>
<!-- Generator: Adobe Illustrator 26.0.2, SVG Export Plug-In . SVG Version: 6.00 Build 0)  -->
<svg version="1.1" id="Layer_1" xmlns="http://www.w3.org/2000/svg" xmlns:xlink="http://www.w3.org/1999/xlink" x="0px" y="0px"
	 viewBox="0 0 128 128" style="enable-background:new 0 0 128 128;" xml:space="preserve">
<style type="text/css">
	.st0{fill:#656365;}
	.st1{fill:#E1DFE1;}
</style>
<circle class="st0" cx="64" cy="64" r="64"/>
<path class="st1" d="M82.2,59c6.8,0,11.5-4.1,13.7-7.5c0.7-1.2,1.1-2.3,1.1-3.6V43c0-1.3-0.3-2.6-1.1-3.6c-2.2-3.5-6.8-7.6-13.7-7.6
	c-7.8,0-14.6,6.1-14.5,13.6C67.7,52.9,74.4,59,82.2,59z M45.8,59c7.8,0.1,14.7-6.1,14.5-13.6c-0.1-7.5-6.7-13.6-14.5-13.6
	c-6.8,0-11.3,4-13.7,7.6C31.3,40.5,31,41.7,31,43v4.9c0,1.3,0.3,2.5,1.1,3.6C34.2,54.9,38.9,59,45.8,59z M37.4,50.8
	c-0.9,0-1.7-0.7-1.7-1.6v-7.5c0-1,0.7-1.7,1.7-1.7c1,0,1.7,0.7,1.7,1.7v7.5C39.1,50.1,38.3,50.8,37.4,50.8z M90.6,50.8
	c-1,0-1.7-0.7-1.7-1.6v-7.5c0-1,0.7-1.7,1.7-1.7c0.9,0,1.7,0.7,1.7,1.7v7.5C92.2,50.1,91.5,50.8,90.6,50.8z M47.1,85.2h10V59
	c-2.9,2-6.4,3.2-10,3.5V85.2z M71,85.2h10V62.4c-3.6-0.2-7.1-1.5-10-3.5V85.2z M57,88.8h-9.9V93c0,2.1,1.4,3.2,3.5,3.2h2.8
	c2.1,0,3.5-1.2,3.5-3.2V88.8z M80.9,88.8H71V93c0,2.1,1.4,3.2,3.5,3.2h2.8c2.1,0,3.5-1.2,3.5-3.2C80.9,93,80.9,88.8,80.9,88.8z"/>
</svg>
