<?xml version="1.0" encoding="utf-8"?>
<!-- Generator: Adobe Illustrator 26.0.2, SVG Export Plug-In . SVG Version: 6.00 Build 0)  -->
<svg version="1.1" id="Layer_1" xmlns="http://www.w3.org/2000/svg" xmlns:xlink="http://www.w3.org/1999/xlink" x="0px" y="0px"
	 viewBox="0 0 128 128" style="enable-background:new 0 0 128 128;" xml:space="preserve">
<style type="text/css">
	.st0{fill:#656365;}
	.st1{fill:#E1DFE1;}
</style>
<circle class="st0" cx="64" cy="64" r="64"/>
<path class="st1" d="M64,28.8c-20.5,0-34,14.6-34,36.6c0,10.1,2.9,21.1,7.8,29.8c0.8,1.3,2.1,1.7,3.5,1.2c1.5,2.4,4.2,3.4,7.4,2.5
	c3.8-1.1,5.6-4.4,4.5-8.3l-4.8-16.3c-1.1-3.8-4.4-5.6-8.2-4.5c-1.8,0.5-3.2,1.6-4,2.9c-0.3-2.4-0.5-4.9-0.5-7.3
	C35.7,46.9,47,34.5,64,34.5c17,0,28.3,12.4,28.3,30.9c0,2.4-0.2,4.8-0.5,7.3c-0.8-1.3-2.2-2.4-4-2.9c-3.9-1.1-7.1,0.7-8.2,4.5
	l-4.8,16.3c-1.1,3.9,0.7,7.2,4.5,8.3c3.1,0.9,5.8-0.1,7.4-2.5c1.4,0.6,2.8,0.1,3.5-1.2c4.9-8.6,7.8-19.7,7.8-29.8
	C98,43.4,84.4,28.8,64,28.8z"/>
</svg>
