<?xml version="1.0" encoding="utf-8"?>
<!-- Generator: Adobe Illustrator 26.0.2, SVG Export Plug-In . SVG Version: 6.00 Build 0)  -->
<svg version="1.1" id="Layer_1" xmlns="http://www.w3.org/2000/svg" xmlns:xlink="http://www.w3.org/1999/xlink" x="0px" y="0px"
	 viewBox="0 0 128 128" style="enable-background:new 0 0 128 128;" xml:space="preserve">
<style type="text/css">
	.st0{fill:#656365;}
	.st1{fill:#E1DFE1;}
</style>
<circle class="st0" cx="64" cy="64" r="64"/>
<path class="st1" d="M64,96.7c10.3,0,16.4-5,17.3-15c1-11.8,1-23.2-0.1-35.8c-0.8-9.6-6.9-14.6-17.2-14.6c-10.3,0-16.4,5-17.2,14.6
	c-1.1,12.6-1.1,24-0.1,35.8C47.7,91.6,53.7,96.7,64,96.7z M65.5,75.5c-0.4,0.4-1,0.8-1.6,0.8h-0.1c0,0,0-0.1,0-0.2
	c0-0.6,0.3-1.2,0.7-1.5c0.3-0.5,1.1-0.8,1.6-0.8c0,0.1,0,0.1,0,0.2C66,74.5,65.8,75.1,65.5,75.5z M64,84.6c-0.8,0-1.2,0.4-1.9,0.4
	c-0.7,0-1.2-0.6-1.8-1.4c-0.6-0.9-1.2-2.3-1.2-3.7c0-2.2,1.4-3.3,2.8-3.3c0.7,0,1.3,0.4,1.8,0.4c0.4,0,1.1-0.4,1.9-0.4
	c0.4,0,1.5,0,2.3,1.1c-0.1,0.1-1.2,0.7-1.2,2.1c0,1.7,1.5,2.3,1.5,2.3c0,0-0.2,0.8-0.8,1.6c-0.4,0.7-1,1.4-1.8,1.4
	C65.1,85,64.9,84.6,64,84.6z"/>
</svg>
