<?xml version="1.0" encoding="utf-8"?>
<!-- Generator: Adobe Illustrator 26.0.2, SVG Export Plug-In . SVG Version: 6.00 Build 0)  -->
<svg version="1.1" id="Layer_1" xmlns="http://www.w3.org/2000/svg" xmlns:xlink="http://www.w3.org/1999/xlink" x="0px" y="0px"
	 viewBox="0 0 128 128" style="enable-background:new 0 0 128 128;" xml:space="preserve">
<style type="text/css">
	.st0{fill:#656365;}
	.st1{fill:#E1DFE1;}
</style>
<circle class="st0" cx="64" cy="64" r="64"/>
<path class="st1" d="M37,38.5v51c0,6.8,3.5,10.4,10.2,10.4h33.6c6.8,0,10.2-3.5,10.2-10.4v-51c0-6.8-3.5-10.4-10.2-10.4H47.3
	C40.5,28.1,37,31.6,37,38.5z M64,54.8c-4.5,0-8.2-3.6-8.2-8.2c0-4.6,3.6-8.2,8.2-8.2c4.5,0,8.2,3.6,8.2,8.2
	C72.3,51.2,68.6,54.8,64,54.8z M64,50.4c2.1,0,3.7-1.6,3.7-3.7c0-2.1-1.7-3.7-3.7-3.7c-2.1,0-3.7,1.6-3.7,3.7
	C60.3,48.7,62,50.4,64,50.4z M64,89.4c-7.9,0-14.3-6.3-14.3-14.3c0-8,6.3-14.3,14.3-14.3s14.3,6.3,14.3,14.3
	C78.3,83.1,72,89.4,64,89.4z M64,80.9c3.2,0,5.6-2.6,5.6-5.6c0-3.3-2.5-5.7-5.6-5.7s-5.6,2.5-5.6,5.7C58.4,78.3,61,80.9,64,80.9z"/>
</svg>
