<svg xmlns="http://www.w3.org/2000/svg" xml:space="preserve" id="galaxy_buds_live_svg__Layer_1" x="0" y="0" style="enable-background:new 0 0 128 128" version="1.1" viewBox="0 0 128 128">
  <style>
    .galaxy_buds_live_svg__st1{opacity:.85;fill:#fff}.galaxy_buds_live_svg__st2{opacity:.43;fill:#fff}
  </style>
  <circle cx="64" cy="64" r="64" style="fill:#3b82f7"/>
  <path d="M40 75.8c-3.4-9.8-3.9-23.5-2.6-31.9.6-4.2 1.6-6.9 2.4-8.5 0-.1 0-.1-.1-.1-5.7.7-14.1 5.8-14.1 19.3 0 17.9 10.7 38.2 22.8 38.2.1 0 .1-.1.1-.2-3.8-4-7.1-12.6-8.5-16.8z" class="galaxy_buds_live_svg__st1"/>
  <path d="M52.5 57.6c4.8 0 5.3-3.5 5.3-11.9s-2.2-8.2-2.8-8.2c-.6 0-3.3.5-4.5 3-.9 1.9-.4 17.1 2 17.1z" class="galaxy_buds_live_svg__st2"/>
  <path d="M52.2 59.5c0-.2-.1-.4-.3-.5-.5-.1-1-.5-1.5-1.2-1.9-3.1-2.3-14.1-1.5-17.3.1-.2 0-.4-.2-.5-.7-.5-1-1.2-1.2-2-.4-1.3-1.7-2.7-3-2.7h-2.9c-.1 0-.1 0-.1.1-.8 1.3-2 4.1-2.7 8.9-1.2 8.3-.8 21.6 2.6 31.2 3.1 8.9 6.6 15.3 9.3 17.3h.1c7.6-.8 7-5.9 7-11.9 0-6.4-7-11.3-5.6-21.4z" class="galaxy_buds_live_svg__st2"/>
  <path d="M88 75.8c3.4-9.8 3.9-23.5 2.6-31.9-.6-4.1-1.6-6.9-2.4-8.5 0-.1 0-.1.1-.1 5.7.7 14.1 5.9 14.1 19.4 0 17.9-10.7 38.2-22.8 38.2-.1 0-.1-.1-.1-.2 3.8-4.1 7.1-12.7 8.5-16.9z" class="galaxy_buds_live_svg__st1"/>
  <path d="M75.5 57.6c-4.8 0-5.3-3.5-5.3-11.9s2.2-8.2 2.8-8.2c.6 0 3.3.5 4.5 3 .9 1.9.4 17.1-2 17.1z" class="galaxy_buds_live_svg__st2"/>
  <path d="M75.8 59.5c0-.2.1-.4.3-.5.5-.1 1-.5 1.5-1.2 1.9-3.1 2.3-14.1 1.5-17.3-.1-.2 0-.4.2-.5.7-.5 1-1.2 1.2-2 .4-1.3 1.7-2.7 3-2.7h2.9c.1 0 .1 0 .1.1.8 1.3 2 4.1 2.7 8.9 1.2 8.3.8 21.6-2.6 31.2-3.1 8.9-6.6 15.3-9.3 17.3h-.1c-7.6-.8-7-5.9-7-11.9 0-6.4 7-11.3 5.6-21.4z" class="galaxy_buds_live_svg__st2"/>
</svg>
