<svg xmlns="http://www.w3.org/2000/svg" xml:space="preserve" viewBox="0 0 128 128">
   <circle cx="64" cy="64" r="64" fill="#3b82f7" />
   <path fill="#fff" opacity="0.85"
      d="m 41.221533,78.256206 c 2.531214,-1.163764 4.566371,-3.484855 5.8754,-5.94409 2.576712,-4.840792 5.776805,-11.262109 3.24754,-16.127859 -2.471188,-4.754021 -9.364786,-6.287819 -14.720065,-6.45655 -4.851193,-0.152849 -10.699516,1.164148 -13.676229,4.997764 -1.9062,2.454934 -1.811068,6.296762 -0.931119,9.2777 1.793034,6.074127 6.058879,12.301899 11.859617,14.843833 2.554114,1.119236 5.811231,0.574074 8.344856,-0.590798 z" />
   <path fill="#fff" opacity="0.43"
      d="m 35.840449,41.336998 c -3.710063,-0.06671 -7.394066,0.624181 -10.392578,2.042969 -7.100923,3.3599 -11.72779,12.609676 -11.455078,20.595703 0.215877,6.321682 4.289898,16.661198 11.113281,20.191406 6.664605,3.448062 15.956002,3.959644 22.367188,-2.533203 11.207084,-11.349832 10.763505,-24.458052 4.085937,-33.519531 -3.279851,-4.450768 -9.535311,-6.66616 -15.71875,-6.777344 z m -1.136718,8.378906 c 0.310044,-0.0022 0.616722,0.0022 0.919922,0.01172 5.355273,0.168731 12.249517,1.703015 14.720703,6.457031 2.529262,4.865745 -0.671338,11.286166 -3.248047,16.126953 -1.309028,2.459233 -3.343789,4.78155 -5.875,5.945313 -2.533623,1.164871 -5.789639,1.709079 -8.34375,0.589844 -5.800732,-2.541932 -10.068296,-8.769629 -11.861328,-14.84375 -0.879948,-2.980935 -0.974558,-6.822413 0.93164,-9.277344 2.790666,-3.594012 8.105187,-4.976981 12.75586,-5.009767 z" />
   <path fill="#fff" opacity="0.43"
      d="M 57.693034,64.665598 C 56.653535,68.781034 51.566893,81.053885 44.734441,85.424384 49.776818,87.324591 58.235885,84.003873 60.926645,78.835119 63.163684,74.53793 61.90437,67.347043 57.693034,64.665598 Z" />
   <path fill="#fff" opacity="0.85"
      d="m 86.778472,78.256206 c -2.531214,-1.163764 -4.566371,-3.484855 -5.8754,-5.94409 -2.576712,-4.840792 -5.776805,-11.262109 -3.24754,-16.127859 2.471188,-4.754021 9.364786,-6.287819 14.720065,-6.45655 4.851193,-0.152849 10.699513,1.164148 13.676233,4.997764 1.9062,2.454934 1.81106,6.296762 0.93111,9.2777 -1.79303,6.074127 -6.05887,12.301899 -11.859612,14.843833 -2.554114,1.119236 -5.811231,0.574074 -8.344856,-0.590798 z" />
   <path fill="#fff" opacity="0.43"
      d="m 92.159556,41.336998 c 3.710063,-0.06671 7.394066,0.624181 10.392574,2.042969 7.10093,3.3599 11.72779,12.609676 11.45508,20.595703 -0.21588,6.321682 -4.2899,16.661198 -11.11328,20.191406 C 96.229326,87.615138 86.937929,88.12672 80.526743,81.633873 69.319659,70.284041 69.763238,57.175821 76.440806,48.114342 c 3.279851,-4.450768 9.535311,-6.66616 15.71875,-6.777344 z m 1.136718,8.378906 c -0.310044,-0.0022 -0.616722,0.0022 -0.919922,0.01172 -5.355273,0.168731 -12.249517,1.703015 -14.720703,6.457031 -2.529262,4.865745 0.671338,11.286166 3.248047,16.126953 1.309028,2.459233 3.343789,4.78155 5.875,5.945313 2.533623,1.164871 5.789639,1.709079 8.34375,0.589844 5.800734,-2.541932 10.068294,-8.769629 11.861324,-14.84375 0.87995,-2.980935 0.97456,-6.822413 -0.93164,-9.277344 -2.79066,-3.594012 -8.105183,-4.976981 -12.755856,-5.009767 z" />
   <path fill="#fff" opacity="0.43"
      d="M 70.306971,64.665598 C 71.34647,68.781034 76.433112,81.053885 83.265564,85.424384 78.223187,87.324591 69.76412,84.003873 67.07336,78.835119 64.836321,74.53793 66.095635,67.347043 70.306971,64.665598 Z" />
</svg>