<?xml version="1.0" encoding="utf-8"?>
<!-- Generator: Adobe Illustrator 27.0.0, SVG Export Plug-In . SVG Version: 6.00 Build 0)  -->
<svg version="1.1" id="Layer_1" xmlns="http://www.w3.org/2000/svg" xmlns:xlink="http://www.w3.org/1999/xlink" x="0px" y="0px"
	 viewBox="0 0 128 128" style="enable-background:new 0 0 128 128;" xml:space="preserve">
<style type="text/css">
	.st0{fill:#656365;}
	.st1{fill:#FFFFFF;fill-opacity:0.425;}
	.st2{fill:#FFFFFF;}
</style>
<circle class="st0" cx="64" cy="64" r="64"/>
<g>
	<g>
		<g id="XMLID_00000045585912083167861380000001697400417624585102_">
			<g>
				<path class="st1" d="M88.3,93.1c0.1,0.1,0.1,0.2,0.1,0.3l-0.5,2c-0.1,0.2-0.3,0.3-0.5,0.1l-8.6-8.1c-0.1-0.1-0.1-0.2-0.1-0.3
					l0.5-2c0.1-0.2,0.3-0.3,0.5-0.1L88.3,93.1z"/>
				<path class="st1" d="M49.3,87.1c0,0.1,0,0.2-0.1,0.3l-8.6,8.1c-0.2,0.2-0.4,0.1-0.5-0.1l-0.5-2c0-0.1,0-0.2,0.1-0.3l8.6-8.1
					c0.2-0.2,0.4-0.1,0.5,0.1L49.3,87.1z"/>
				<path class="st2" d="M87.1,71.7c7.4,0,12.5,6.3,12.5,14.4s-7,22.5-19.9,22.5c-8.5,0-12.4-6.5-12.4-14
					C67.2,82.9,77,71.7,87.1,71.7z M88.4,93.4c0-0.1,0-0.2-0.1-0.3L79.6,85c-0.2-0.2-0.4-0.1-0.5,0.1l-0.5,2c0,0.1,0,0.2,0.1,0.3
					l8.6,8.1c0.2,0.2,0.4,0.1,0.5-0.1L88.4,93.4z"/>
				<path class="st2" d="M60.8,94.6c0,7.5-3.9,14-12.4,14c-12.9,0-19.9-14.3-19.9-22.5s5.1-14.4,12.5-14.4
					C51,71.7,60.8,82.9,60.8,94.6z M49.3,87.4c0.1-0.1,0.1-0.2,0.1-0.3l-0.5-2c-0.1-0.2-0.3-0.3-0.5-0.1l-8.6,8.1
					c-0.1,0.1-0.1,0.2-0.1,0.3l0.5,2c0.1,0.2,0.3,0.3,0.5,0.1L49.3,87.4z"/>
				<path class="st1" d="M96.5,68.1C96.5,68.1,96.6,68.1,96.5,68.1l1.5,1.5l4.5,4.6l2.6,2.7c0,0,0,0.1,0,0.1
					c-0.4,0.4-3.3,2.9-3.3,5.3c0,2.6,0.6,2.5,0.6,4.3c0,12.1-10.4,25-24.8,25C70.7,111.7,64,105,64,99c0,0,0,0,0,0
					c0-9.1,0-3.3,0-9.1c0-5.8,8.4-21.5,22.6-21.5c3.7,0,3.3,1.2,6.3,1.2C94.2,69.6,96.2,68.4,96.5,68.1z M99.6,86.1
					c0-8.2-5.1-14.4-12.5-14.4c-10.1,0-19.8,11.2-19.8,23c0,7.5,3.9,14,12.4,14C92.6,108.6,99.6,94.3,99.6,86.1z"/>
				<path class="st1" d="M31.5,68.2c0.3,0.2,2.3,1.5,3.6,1.5c3,0,2.6-1.2,6.3-1.2C55.5,68.5,64,84.2,64,90c0,5.8,0,0,0,9.1
					c0,0,0,0,0,0c0,5.9-6.7,12.7-13.7,12.7c-14.3,0-24.8-13-24.8-25c0-1.8,0.6-1.6,0.6-4.3c0-2.4-2.9-5-3.3-5.3c0,0,0-0.1,0-0.1
					l2.6-2.7l4.5-4.6L31.5,68.2C31.4,68.1,31.5,68.1,31.5,68.2z M48.3,108.6c8.5,0,12.4-6.5,12.4-14c0-11.7-9.8-23-19.8-23
					c-7.4,0-12.5,6.3-12.5,14.4S35.4,108.6,48.3,108.6z"/>
				<path class="st2" d="M95.2,35.1l-0.7,0.4c0,0-0.1,0-0.1,0L91,31c0,0,0.7-2.2,4.2-3.9l3.6,5.6c0,0,0,0.1,0,0.1l-1.4,0.9
					L95.2,35.1z"/>
				<path class="st2" d="M33.6,35.5c0,0-0.1,0-0.1,0l-0.6-0.4l-2.2-1.4l-1.4-0.9c0,0,0-0.1,0-0.1l3.6-5.6C36.3,28.8,37,31,37,31
					L33.6,35.5z"/>
				<path class="st1" d="M101.3,41.7L101.3,41.7c-0.7,0.2-1.6,0.5-2.4,1.1c0,0-0.9-3.9-3.8-7.8l2.2-1.4
					C100.6,37.7,101.3,41.7,101.3,41.7z"/>
				<path class="st1" d="M30.6,33.7l2.2,1.4c-2.8,3.8-3.7,7.6-3.8,7.8c-0.8-0.6-1.7-0.9-2.4-1.1C26.7,41.8,27.4,37.7,30.6,33.7z"/>
				<path class="st1" d="M95.2,27.1C91.7,28.8,91,31,91,31s-13.6-6.8-27-6.8v0c-13.3,0-27,6.8-27,6.8s-0.8-2.2-4.2-3.9
					C43.2,13.8,64,14.3,64,14.3v0C64,14.3,84.8,13.8,95.2,27.1z"/>
			</g>
		</g>
	</g>
	<g>
		<path class="st2" d="M29.9,68.6c-0.4-1.6-1.8-1.6-1.8-1.6C27.2,59,26.7,51.5,29.9,44c0.1-0.2,0-0.4-0.1-0.5
			c-0.2-0.3-0.5-0.5-0.7-0.7c-0.8-0.6-1.7-0.9-2.4-1.1c-0.3-0.1-0.5-0.1-0.6-0.1c-0.2,0-0.4,0.1-0.5,0.3C25,43.2,23,48.7,23,59.1
			c0,7,1.2,11.6,1.9,13.8c0.1,0.4,0.6,0.5,0.9,0.2l3.9-4C29.9,68.9,29.9,68.7,29.9,68.6z"/>
		<polygon class="st2" points="25.5,74.2 25.5,74.2 25.6,74.2 		"/>
	</g>
	<path class="st2" d="M99.9,66.9c0,0-1.4,0-1.8,1.6c0,0.2,0,0.4,0.1,0.5l3.9,4c0.3,0.3,0.8,0.2,0.9-0.2c0.7-2.2,1.9-6.8,1.9-13.8
		c0-10.4-1.9-15.8-2.5-17.2c-0.1-0.2-0.3-0.3-0.5-0.3c-0.2,0-0.4,0.1-0.6,0.1c-0.7,0.2-1.6,0.5-2.4,1.1c-0.3,0.2-0.5,0.4-0.7,0.7
		c-0.1,0.1-0.2,0.3-0.1,0.5C101.3,51.5,100.8,59,99.9,66.9z"/>
</g>
</svg>
